<svg xmlns="http://www.w3.org/2000/svg" width="138" height="74" viewBox="0 0 138 74" fill="none"><path d="M75.8593 74C71.8619 74 68.6822 70.8606 68.6822 66.9139C68.6822 62.9673 71.8619 59.8279 75.8593 59.8279C79.8566 59.8279 83.0364 62.9673 83.0364 66.9139C83.0364 70.7709 79.8566 74 75.8593 74ZM75.8593 63.326C73.8606 63.326 72.2253 64.9406 72.2253 66.9139C72.2253 68.8873 73.8606 70.5018 75.8593 70.5018C77.858 70.5018 79.4932 68.8873 79.4932 66.9139C79.4932 64.9406 77.858 63.326 75.8593 63.326Z" fill="#223C71"></path><path d="M79.4024 57.3164C77.6763 55.8812 74.0423 55.8812 72.407 57.3164L70.0449 54.7152C72.9521 52.2036 78.5847 52.1139 81.6736 54.7152L79.4024 57.3164Z" fill="#223C71"></path><path d="M33.3414 4.57455C34.3408 5.74061 34.9767 7.53455 34.9767 9.50788C34.9767 11.4812 34.3408 13.2752 33.3414 14.5309L38.7015 19.0158C40.8819 16.5042 42.063 13.0958 42.063 9.50788C42.063 5.8303 40.7911 2.42182 38.7015 0L33.3414 4.57455Z" fill="#F1B300"></path><path d="M33.2508 51.9345C31.0704 54.446 29.8893 57.8545 29.8893 61.4424C29.8893 65.12 31.1612 68.5285 33.2508 70.9503L38.52 66.3757C37.5207 65.2097 36.8847 63.4157 36.8847 61.4424C36.8847 59.4691 37.5207 57.6751 38.52 56.4194L33.2508 51.9345Z" fill="#F1B300"></path><path d="M67.2281 32.9188C66.047 33.9054 64.2301 34.5333 62.2314 34.5333C60.2327 34.5333 58.4157 33.9054 57.1438 32.9188L52.6013 38.2109C55.1451 40.3636 58.5974 41.5297 62.2314 41.5297C65.9562 41.5297 69.4085 40.2739 71.8614 38.2109L67.2281 32.9188Z" fill="#F1B300"></path><path d="M14.7175 38.1212L19.26 32.8291C16.7162 30.6764 13.264 29.5103 9.62999 29.5103C5.90517 29.5103 2.4529 30.7661 -3.05176e-05 32.8291L4.63328 38.0315C5.81432 37.0449 7.63131 36.417 9.62999 36.417C11.6287 36.5067 13.4457 37.1346 14.7175 38.1212Z" fill="#F1B300"></path><path d="M63.2315 12.1988L56.2361 11.7503C56.1452 13.2751 55.2367 14.9794 53.874 16.3248C52.5113 17.6703 50.7851 18.5672 49.1498 18.6569L49.6949 25.5636C53.0564 25.2945 56.3269 23.7697 58.8707 21.1684C61.4145 18.7466 63.0498 15.4278 63.2315 12.1988Z" fill="#F1B300"></path><path d="M13.0824 49.6921C10.4478 52.2933 8.90335 55.6121 8.6308 58.8412L15.6262 59.2897C15.717 57.7649 16.6255 56.0606 17.9883 54.7152C19.351 53.3697 21.0771 52.4727 22.7124 52.383L22.1673 45.4764C18.8968 45.5661 15.717 47.0909 13.0824 49.6921Z" fill="#F1B300"></path><path d="M12.3552 8.52119L11.9009 15.4279C13.4453 15.5176 15.1715 16.4145 16.5342 17.76C17.897 19.1054 18.8054 20.8097 18.8963 22.4242L25.8917 21.886C25.6191 18.5672 24.0747 15.3382 21.4401 12.8266C18.9871 10.3151 15.6257 8.79028 12.3552 8.52119Z" fill="#F1B300"></path><path d="M55.8722 66.1066V73.7309H52.2382V54.2666H59.6878C63.6852 54.2666 65.8656 56.5987 65.8656 60.1866C65.8656 63.7745 63.6852 66.1066 59.6878 66.1066H55.8722ZM59.5062 62.7878C61.2323 62.7878 62.1408 61.8909 62.1408 60.1866C62.1408 58.4824 61.2323 57.5854 59.5062 57.5854H55.8722V62.7878H59.5062Z" fill="#223C71"></path><path d="M87.7601 54.0873H91.2124V73.8206H87.7601V54.0873Z" fill="#223C71"></path><path d="M107.929 67.9006H98.1171C98.208 69.6049 99.4799 71.04 101.479 71.04C102.932 71.04 104.113 70.3225 104.931 68.8873L107.747 69.874C106.566 72.5649 104.386 74 101.297 74C96.391 74 94.4832 70.1431 94.4832 66.7346C94.4832 63.3261 96.391 59.4691 101.297 59.4691C103.568 59.4691 105.385 60.3661 106.384 61.8013C107.384 63.1467 107.929 64.851 107.929 66.3758V67.9006ZM98.2988 65.12H104.386C104.022 63.3261 102.932 62.4291 101.297 62.4291C99.6616 62.4291 98.4805 63.6849 98.2988 65.12Z" fill="#223C71"></path><path d="M122.919 70.143C121.738 72.7442 119.83 74 117.014 74C114.924 74 113.38 73.2824 112.199 71.937C111.109 70.5018 110.564 68.7976 110.564 66.8242C110.564 64.8509 111.109 63.057 112.199 61.7115C113.289 60.2764 114.924 59.5588 117.014 59.5588C119.83 59.5588 121.829 60.8145 122.919 63.4158L120.83 64.223C120.103 62.5188 118.74 61.6218 116.923 61.6218C114.289 61.6218 112.926 63.7745 112.926 66.7345C112.926 69.7842 114.379 71.8473 116.923 71.8473C118.74 71.8473 120.012 70.9503 120.83 69.2461L122.919 70.143Z" fill="#223C71"></path><path d="M138 73.7309H135.638V64.4921C135.638 62.6085 134.82 61.6218 133.185 61.6218C132.095 61.6218 131.095 62.2497 130.278 63.3261C129.46 64.4921 129.097 66.017 129.097 67.9006V73.7309H126.735V59.7382H129.097V62.3394C130.187 60.4558 131.731 59.5588 133.821 59.5588C136.456 59.5588 138 61.1733 138 63.9539V73.7309Z" fill="#223C71"></path></svg>