<?xml version="1.0" encoding="utf-8"?>
<!-- Generator: Adobe Illustrator 19.1.0, SVG Export Plug-In . SVG Version: 6.00 Build 0)  -->
<svg version="1.1" id="Layer_1" xmlns="http://www.w3.org/2000/svg" xmlns:xlink="http://www.w3.org/1999/xlink" x="0px" y="0px"
	 viewBox="0 0 284.9 230.3" style="enable-background:new 0 0 284.9 230.3;" xml:space="preserve">
<style type="text/css">
	.st0{fill:#004990;}
	.st1{fill:#78A22F;}
</style>
<g>
	<g>
		<g>
			<path class="st0" d="M213.4,25l2.6-0.2c11.6-1,23,1.2,33.1,5.8c0.8-3.6,3.4-6.7,7.1-8.1c5.9-2.2,12.5,0.8,14.8,6.7
				c1.9,5,0.1,10.4-4.1,13.3c7.1,6.7,12.8,15,16.5,24.4l0.9,2.4l-12.9,5l-0.9-2.4c-8.3-21.6-29.1-40-53.6-38.8l-2.6,0.2L213.4,25z"
				/>
			<path class="st0" d="M161.2,100.9l-1.5-2.1c-6.7-9.6-10.5-20.5-11.5-31.6c-3.5,1-7.5,0.4-10.5-2.1c-4.9-4-5.6-11.2-1.6-16.1
				c3.4-4.1,9-5.3,13.6-3.2c2.2-9.5,6.5-18.6,12.9-26.5l1.6-2l10.8,8.7l-1.6,2c-14.6,18-20.1,45.2-6.8,65.8l1.5,2.1L161.2,100.9z"/>
			<path class="st0" d="M253,108.1l-1.1,2.4c-4.9,10.5-12.5,19.3-21.6,25.7c2.7,2.5,4.1,6.3,3.4,10.2c-1,6.2-6.9,10.5-13.2,9.4
				c-5.2-0.9-9-5.1-9.5-10.2c-9.3,2.8-19.4,3.6-29.4,2.1l-2.6-0.4l2.2-13.7l2.6,0.4c22.9,3.6,49.2-5.2,60.4-27l1.1-2.4L253,108.1z"
				/>
		</g>
		<g>
			<path class="st1" d="M165.4,47.9l1.1-2.3c4.9-10.5,12.5-19.3,21.6-25.8c-2.7-2.5-4.1-6.3-3.4-10.2c1-6.2,6.9-10.5,13.2-9.4
				c5.2,0.9,9,5.1,9.5,10.2c9.3-2.8,19.4-3.6,29.4-2l2.6,0.4l-2.2,13.7l-2.6-0.4c-22.9-3.6-49.2,5.2-60.4,27l-1.1,2.3L165.4,47.9z"
				/>
			<path class="st1" d="M205,131l-2.6,0.2c-11.6,1-23-1.2-33.1-5.8c-0.9,3.6-3.4,6.7-7.1,8.1c-5.9,2.2-12.5-0.7-14.8-6.7
				c-1.9-5-0.1-10.4,4.1-13.3c-7.1-6.7-12.8-15-16.5-24.5l-0.9-2.4l12.9-5l0.9,2.4c8.3,21.6,29.1,40,53.6,38.8l2.6-0.2L205,131z"/>
			<path class="st1" d="M257.2,55.2l1.5,2.1c6.6,9.5,10.5,20.5,11.5,31.6c3.5-1.1,7.5-0.4,10.5,2.1c4.9,4,5.6,11.2,1.6,16.1
				c-3.4,4.1-9,5.3-13.6,3.2c-2.2,9.5-6.5,18.6-12.9,26.5l-1.6,2l-10.8-8.7l1.6-2c14.6-18,20.1-45.2,6.8-65.9l-1.5-2.1L257.2,55.2z"
				/>
		</g>
	</g>
	<g>
		<path class="st0" d="M19,107.1c-0.8-3.6-3.9-5.6-7.4-5.6c-6.4,0-9.1,5.1-9.1,10.2c0,5.1,2.7,10.2,9.1,10.2c4.5,0,7.3-3.3,7.8-7.5
			h2.3c-0.6,5.7-4.4,9.3-10.1,9.3c-7.6,0-11.4-5.8-11.4-12.1c0-6.3,3.8-12.1,11.4-12.1c4.6,0,9.1,2.6,9.7,7.5H19z"/>
		<path class="st0" d="M40,114.9c0,4.8-2.9,8.9-8.3,8.9c-5.3,0-8.3-4.1-8.3-8.9c0-4.8,2.9-8.9,8.3-8.9C37.1,106,40,110.1,40,114.9z
			 M25.6,114.9c0,3.6,2,7.2,6.1,7.2c4.1,0,6.1-3.6,6.1-7.2c0-3.6-2-7.2-6.1-7.2C27.7,107.7,25.6,111.3,25.6,114.9z"/>
		<path class="st0" d="M42.8,106.5H45v2.9H45c0.8-2,3.1-3.4,5.6-3.4c4.9,0,6.4,2.5,6.4,6.5v10.8h-2.1v-10.5c0-2.9-1-5.1-4.4-5.1
			c-3.4,0-5.4,2.5-5.5,5.8v9.8h-2.1V106.5z"/>
		<path class="st0" d="M71.2,111.4c-0.1-2.5-2.1-3.7-4.6-3.7c-1.9,0-4.1,0.7-4.1,2.9c0,1.8,2.2,2.5,3.6,2.8l2.8,0.6
			c2.4,0.4,5,1.7,5,4.7c0,3.6-3.8,5-7,5c-4.1,0-6.8-1.8-7.2-5.9h2.1c0.2,2.8,2.3,4.2,5.1,4.2c2,0,4.8-0.8,4.8-3.2
			c0-2-1.9-2.6-3.8-3.1l-2.7-0.6c-2.8-0.7-4.9-1.6-4.9-4.5c0-3.4,3.5-4.7,6.6-4.7c3.5,0,6.3,1.8,6.4,5.4H71.2z"/>
		<path class="st0" d="M77.9,115.4c0,3,1.7,6.6,5.8,6.6c3.1,0,4.8-1.8,5.5-4.3h2.1c-0.9,3.8-3.2,6-7.6,6c-5.6,0-7.9-4.1-7.9-8.9
			c0-4.4,2.3-8.9,7.9-8.9c5.6,0,7.9,4.7,7.7,9.4H77.9z M89.2,113.7c-0.1-3.1-2.1-6-5.6-6c-3.5,0-5.4,2.9-5.8,6H89.2z"/>
		<path class="st0" d="M93.9,100h2.1v3.3h-2.1V100z M93.9,106.5h2.1v16.8h-2.1V106.5z"/>
		<path class="st0" d="M99.9,100h2.1v23.2h-2.1V100z"/>
		<path class="st0" d="M16.3,165h-2.1v-9.4h-0.1c-0.9,2.4-3.5,3.7-6.1,3.7c-5.3,0-7.9-4.1-7.9-8.9c0-4.8,2.5-8.9,7.9-8.9
			c2.5,0,5.3,1.5,6.2,3.7h0.1V142h2V165z M8,157.6c4.5,0,6.1-3.7,6.1-7.2c0-3.5-1.6-7.2-6.1-7.2c-4.1,0-5.7,3.7-5.7,7.2
			C2.3,153.9,3.9,157.6,8,157.6z"/>
		<path class="st0" d="M34.1,158.8h-2v-3h-0.1c-1.1,2.2-3.4,3.5-6,3.5c-4.4,0-6.1-2.5-6.1-6.4V142h2.1v10.9c0.1,3,1.3,4.6,4.7,4.6
			c3.7,0,5.2-3.3,5.2-6.7V142h2.1V158.8z"/>
		<path class="st0" d="M39.1,151c0,3,1.7,6.6,5.8,6.6c3.1,0,4.8-1.8,5.5-4.3h2.1c-0.9,3.8-3.2,6-7.6,6c-5.6,0-7.9-4.1-7.9-8.9
			c0-4.4,2.3-8.9,7.9-8.9c5.6,0,7.9,4.7,7.7,9.4H39.1z M50.4,149.2c-0.1-3.1-2.1-6-5.6-6c-3.5,0-5.4,2.9-5.8,6H50.4z M44.3,139.7
			h-1.7l3.6-4.6h2.6L44.3,139.7z"/>
		<path class="st0" d="M55.1,135.6h2.1v9.6h0.1c0.9-2.4,3.5-3.7,6.1-3.7c5.3,0,7.9,4.1,7.9,8.9c0,4.8-2.5,8.9-7.9,8.9
			c-2.8,0-5.2-1.4-6.2-3.7H57v3.2h-2V135.6z M63.3,143.2c-4.5,0-6.1,3.7-6.1,7.2c0,3.5,1.6,7.2,6.1,7.2c4.1,0,5.7-3.7,5.7-7.2
			C69,146.9,67.4,143.2,63.3,143.2z"/>
		<path class="st0" d="M75.4,151c0,3,1.7,6.6,5.8,6.6c3.1,0,4.8-1.8,5.5-4.3h2.1c-0.9,3.8-3.2,6-7.6,6c-5.6,0-7.9-4.1-7.9-8.9
			c0-4.4,2.3-8.9,7.9-8.9c5.6,0,7.9,4.7,7.7,9.4H75.4z M86.7,149.2c-0.1-3.1-2.1-6-5.6-6c-3.5,0-5.4,2.9-5.8,6H86.7z M80.6,139.7
			h-1.7l3.6-4.6h2.6L80.6,139.7z"/>
		<path class="st0" d="M103.7,147.3c-0.6-2.5-2.2-4-4.9-4c-4.1,0-6.1,3.6-6.1,7.2c0,3.6,2,7.2,6.1,7.2c2.6,0,4.8-2,5.1-4.8h2.1
			c-0.6,4-3.3,6.5-7.2,6.5c-5.3,0-8.3-4.1-8.3-8.9c0-4.8,2.9-8.9,8.3-8.9c3.7,0,6.6,1.9,7.1,5.8H103.7z"/>
		<path class="st0" d="M124.3,150.4c0,4.8-2.9,8.9-8.3,8.9c-5.3,0-8.3-4.1-8.3-8.9c0-4.8,2.9-8.9,8.3-8.9
			C121.4,141.5,124.3,145.6,124.3,150.4z M109.9,150.4c0,3.6,2,7.2,6.1,7.2c4.1,0,6.1-3.6,6.1-7.2c0-3.6-2-7.2-6.1-7.2
			C111.9,143.2,109.9,146.8,109.9,150.4z"/>
		<path class="st0" d="M127.1,135.6h2.1v3.3h-2.1V135.6z M127.1,142h2.1v16.8h-2.1V142z"/>
		<path class="st0" d="M143.5,146.9c-0.1-2.5-2.1-3.7-4.6-3.7c-1.9,0-4.1,0.7-4.1,2.9c0,1.8,2.2,2.5,3.6,2.8l2.8,0.6
			c2.4,0.4,5,1.7,5,4.7c0,3.6-3.8,5-7,5c-4.1,0-6.8-1.8-7.2-5.9h2.1c0.2,2.8,2.3,4.2,5.1,4.2c2,0,4.8-0.8,4.8-3.2
			c0-2-1.9-2.6-3.8-3.1l-2.7-0.6c-2.8-0.7-4.9-1.6-4.9-4.5c0-3.4,3.5-4.7,6.6-4.7c3.5,0,6.3,1.8,6.4,5.4H143.5z"/>
		<path class="st0" d="M16.3,194.3h-2v-3.2h-0.1c-0.9,2.2-3.7,3.7-6.2,3.7c-5.3,0-7.9-4.1-7.9-8.9c0-4.8,2.5-8.9,7.9-8.9
			c2.6,0,5.1,1.3,6.1,3.7h0.1v-9.6h2.1V194.3z M8,193.1c4.5,0,6.1-3.7,6.1-7.2c0-3.5-1.6-7.2-6.1-7.2c-4.1,0-5.7,3.7-5.7,7.2
			C2.3,189.4,3.9,193.1,8,193.1z"/>
		<path class="st0" d="M20.6,186.5c0,3,1.7,6.6,5.8,6.6c3.1,0,4.8-1.8,5.5-4.3h2.1c-0.9,3.8-3.2,6-7.6,6c-5.6,0-7.9-4.1-7.9-8.9
			c0-4.4,2.3-8.9,7.9-8.9c5.6,0,7.9,4.7,7.7,9.4H20.6z M31.9,184.7c-0.1-3.1-2.1-6-5.6-6c-3.5,0-5.4,2.9-5.8,6H31.9z"/>
		<path class="st0" d="M44.3,171.1h2.1v23.2h-2.1V171.1z"/>
		<path class="st0" d="M49.3,182.7c0.2-3.9,3.1-5.6,7.1-5.6c3.1,0,6.4,0.9,6.4,5.4v8.9c0,0.8,0.4,1.2,1.3,1.2c0.2,0,0.5-0.1,0.7-0.1
			v1.7c-0.5,0.1-0.8,0.1-1.4,0.1c-2.2,0-2.5-1.2-2.5-2.9h-0.1c-1.5,2.2-3,3.4-6.4,3.4c-3.2,0-5.9-1.5-5.9-4.9c0-4.7,4.8-4.9,9.4-5.4
			c1.8-0.2,2.7-0.4,2.7-2.3c0-2.8-2.1-3.5-4.6-3.5c-2.6,0-4.6,1.2-4.7,3.9H49.3z M60.7,185.1L60.7,185.1c-0.3,0.5-1.3,0.7-1.9,0.7
			c-3.6,0.6-8.1,0.6-8.1,3.9c0,2.1,1.9,3.3,3.9,3.3c3.2,0,6.1-2,6.1-5.3V185.1z"/>
		<path class="st0" d="M85.5,183.6c0-1.4-1.4-2.4-2.8-2.4c-3.2,0-3.7,2.6-3.7,5c0,2.2,1,4.4,3.4,4.4c2,0,3-1.1,3.3-2.9h5.6
			c-0.5,4.5-4.2,7.1-8.8,7.1c-5.3,0-9.2-3.5-9.2-8.7c0-5.4,3.6-9.2,9.2-9.2c4.4,0,8.3,2.2,8.7,6.7H85.5z"/>
		<path class="st0" d="M101.5,176.9c5.5,0,9.3,3.9,9.3,9c0,5.1-3.8,8.9-9.3,8.9c-5.5,0-9.2-3.8-9.2-8.9
			C92.3,180.8,96,176.9,101.5,176.9z M101.5,190.6c2.7,0,3.5-2.5,3.5-4.7c0-2.1-0.8-4.7-3.5-4.7c-2.7,0-3.5,2.6-3.5,4.7
			C98,188,98.8,190.6,101.5,190.6z"/>
		<path class="st0" d="M120.2,176.9c5.5,0,9.3,3.9,9.3,9c0,5.1-3.8,8.9-9.3,8.9c-5.5,0-9.2-3.8-9.2-8.9
			C110.9,180.8,114.7,176.9,120.2,176.9z M120.2,190.6c2.7,0,3.5-2.5,3.5-4.7c0-2.1-0.8-4.7-3.5-4.7c-2.7,0-3.5,2.6-3.5,4.7
			C116.7,188,117.5,190.6,120.2,190.6z"/>
		<path class="st0" d="M131.4,177.4h5.5v2h0.1c1.1-1.6,2.8-2.4,4.8-2.4c5.5,0,7.9,4.6,7.9,9.3c0,4.4-2.4,8.6-7.4,8.6
			c-2.2,0-3.8-0.8-5-2.3h-0.1v7.5h-5.8V177.4z M137,185.7c0,3,0.9,4.9,3.5,4.9c2.6,0,3.5-2.6,3.5-4.9c0-2.1-0.9-4.5-3.4-4.5
			C138.9,181.2,137,182.2,137,185.7z"/>
		<path class="st0" d="M156.7,187.2c0.1,2.3,1.5,3.8,3.9,3.8c1.4,0,2.7-0.6,3.3-1.9h5.4c-1.1,3.9-4.8,5.6-8.7,5.6
			c-5.7,0-9.6-3.3-9.6-9c0-5.2,4.3-8.9,9.5-8.9c6.3,0,9.4,4.6,9.2,10.3H156.7z M163.8,184.1c-0.1-1.9-1.5-3.5-3.4-3.5
			c-2,0-3.4,1.4-3.7,3.5H163.8z M166.1,170.7l-5.3,4.9h-4.1l3.3-4.9H166.1z"/>
		<path class="st0" d="M171.6,177.4h5.6v3h0.1c0.8-2.2,2.8-3.3,5.3-3.3c0.4,0,0.9,0,1.4,0.1v5c-0.7-0.2-1.4-0.3-2.2-0.3
			c-2.8,0-4.3,1.9-4.3,4v8.4h-5.8V177.4z"/>
		<path class="st0" d="M184.6,182.6c0.1-2.2,1.2-3.6,2.7-4.5c1.6-0.8,3.6-1.2,5.6-1.2c4.2,0,8.2,0.9,8.2,5.7v7.4c0,1.4,0,3,0.7,4.3
			H196c-0.2-0.5-0.3-1-0.3-1.6c-1.5,1.5-3.7,2.1-5.8,2.1c-3.4,0-6-1.6-6-5.1c0-5.5,6.2-5.1,10.2-5.9c1-0.2,1.5-0.5,1.5-1.6
			c0-1.3-1.6-1.8-2.8-1.8c-1.6,0-2.6,0.7-2.9,2.1H184.6z M192,191.4c2.7,0,3.7-1.5,3.5-5c-0.8,0.5-2.3,0.6-3.6,0.9
			c-1.3,0.3-2.4,0.8-2.4,2.1C189.6,190.8,190.8,191.4,192,191.4z"/>
		<path class="st0" d="M214.5,181h-3.6v7.7c0,1.3,0.8,1.6,2.1,1.6c0.5,0,1-0.1,1.5-0.1v4.1c-1,0-2.1,0.2-3.1,0.2
			c-4.9,0-6.2-1.4-6.2-6V181h-2.9v-3.6h2.9v-5.1h5.8v5.1h3.6V181z"/>
		<path class="st0" d="M222,175.3h-5.8v-4.2h5.8V175.3z M216.2,177.4h5.8v16.9h-5.8V177.4z"/>
		<path class="st0" d="M233.5,176.9c5.5,0,9.3,3.9,9.3,9c0,5.1-3.8,8.9-9.3,8.9c-5.5,0-9.2-3.8-9.2-8.9
			C224.2,180.8,228,176.9,233.5,176.9z M233.5,190.6c2.7,0,3.5-2.5,3.5-4.7c0-2.1-0.8-4.7-3.5-4.7c-2.7,0-3.5,2.6-3.5,4.7
			C230,188,230.8,190.6,233.5,190.6z"/>
		<path class="st0" d="M244.7,177.4h5.6v2.3h0.1c1-1.7,3.4-2.8,5.5-2.8c5.9,0,6.3,4.1,6.3,6.5v10.8h-5.8v-8.2c0-2.3,0.3-4.7-2.9-4.7
			c-2.2,0-3.1,1.8-3.1,3.6v9.2h-5.8V177.4z"/>
		<path class="st0" d="M2.1,222c0,3,1.7,6.6,5.8,6.6c3.1,0,4.8-1.8,5.5-4.3h2.1c-0.9,3.8-3.2,6-7.6,6c-5.6,0-7.9-4.1-7.9-8.9
			c0-4.4,2.3-8.9,7.9-8.9c5.6,0,7.9,4.7,7.7,9.4H2.1z M13.4,220.3c-0.1-3.1-2.1-6-5.6-6c-3.5,0-5.4,2.9-5.8,6H13.4z"/>
		<path class="st0" d="M21.1,213h3.6v1.7h-3.6v11.3c0,1.3,0.2,2.1,1.7,2.2c0.6,0,1.2,0,1.8-0.1v1.8c-0.6,0-1.3,0.1-1.9,0.1
			c-2.8,0-3.8-0.9-3.8-3.8v-11.5h-3V213h3v-5h2.1V213z"/>
		<path class="st0" d="M50.9,229.8h-2v-3.2h-0.1c-0.9,2.2-3.7,3.7-6.2,3.7c-5.3,0-7.9-4.1-7.9-8.9c0-4.8,2.5-8.9,7.9-8.9
			c2.6,0,5.1,1.3,6.1,3.7h0.1v-9.6h2.1V229.8z M42.7,228.6c4.5,0,6.1-3.7,6.1-7.2c0-3.5-1.6-7.2-6.1-7.2c-4.1,0-5.7,3.7-5.7,7.2
			C36.9,224.9,38.6,228.6,42.7,228.6z"/>
		<path class="st0" d="M55.5,222c0,3,1.7,6.6,5.8,6.6c3.1,0,4.8-1.8,5.5-4.3h2.1c-0.9,3.8-3.2,6-7.6,6c-5.6,0-7.9-4.1-7.9-8.9
			c0-4.4,2.3-8.9,7.9-8.9c5.6,0,7.9,4.7,7.7,9.4H55.5z M66.8,220.3c-0.1-3.1-2.1-6-5.6-6c-3.5,0-5.4,2.9-5.8,6H66.8z"/>
		<path class="st0" d="M79.7,206.6h2.1v23.2h-2.1V206.6z"/>
		<path class="st0" d="M84.9,218.2c0.2-3.9,3.1-5.6,7.1-5.6c3.1,0,6.4,0.9,6.4,5.4v8.9c0,0.8,0.4,1.2,1.3,1.2c0.2,0,0.5-0.1,0.7-0.1
			v1.7c-0.5,0.1-0.8,0.1-1.4,0.1c-2.2,0-2.5-1.2-2.5-2.9h-0.1c-1.5,2.2-3,3.4-6.4,3.4c-3.2,0-5.9-1.5-5.9-4.9c0-4.7,4.8-4.9,9.4-5.4
			c1.8-0.2,2.7-0.4,2.7-2.3c0-2.8-2.1-3.5-4.6-3.5c-2.6,0-4.6,1.2-4.7,3.9H84.9z M96.3,220.7L96.3,220.7c-0.3,0.5-1.3,0.7-1.9,0.7
			c-3.6,0.6-8.1,0.6-8.1,3.9c0,2.1,1.9,3.3,3.9,3.3c3.2,0,6.1-2,6.1-5.3V220.7z"/>
		<path class="st0" d="M110.1,212.9h5.6v2.3h0.1c1.1-1.7,2.9-2.8,5-2.8c2.2,0,4.2,0.7,5.1,2.7c1.4-1.8,3.1-2.7,5.5-2.7
			c5.6,0,6.2,4.1,6.2,7.3v10.1h-5.8v-9.9c0-1.8-0.9-2.9-2.4-2.9c-2.5,0-2.7,1.8-2.7,4.6v8.3H121v-9.6c0-2-0.6-3.2-2.2-3.2
			c-2.1,0-2.9,1.1-2.9,4.6v8.2h-5.8V212.9z"/>
		<path class="st0" d="M158.2,229.8h-5.6v-2.3h-0.1c-1.1,1.7-3.3,2.8-5.3,2.8c-5,0-6.5-2.8-6.5-7.2v-10.2h5.8v9.8c0,2.2,1,3,2.8,3
			c1.3,0,3.1-0.8,3.1-3.8v-9.1h5.8V229.8z"/>
		<path class="st0" d="M171.9,216.5h-3.6v7.7c0,1.3,0.8,1.6,2.1,1.6c0.5,0,1-0.1,1.5-0.1v4.1c-1.1,0-2.1,0.2-3.1,0.2
			c-4.9,0-6.2-1.4-6.2-6v-7.5h-2.9v-3.6h2.9v-5.1h5.8v5.1h3.6V216.5z"/>
		<path class="st0" d="M191.1,229.8h-5.6v-2.3h-0.1c-1.1,1.7-3.3,2.8-5.3,2.8c-5,0-6.5-2.8-6.5-7.2v-10.2h5.8v9.8c0,2.2,1,3,2.8,3
			c1.3,0,3.2-0.8,3.2-3.8v-9.1h5.8V229.8z"/>
		<path class="st0" d="M194,218.1c0.1-2.2,1.2-3.6,2.7-4.5c1.6-0.8,3.6-1.2,5.6-1.2c4.2,0,8.2,0.9,8.2,5.7v7.4c0,1.4,0,3,0.7,4.3
			h-5.8c-0.2-0.5-0.3-1-0.3-1.6c-1.5,1.5-3.7,2.1-5.8,2.1c-3.4,0-6-1.6-6-5.1c0-5.5,6.2-5.1,10.2-5.9c1-0.2,1.5-0.5,1.5-1.6
			c0-1.3-1.6-1.8-2.8-1.8c-1.6,0-2.6,0.7-2.9,2.1H194z M201.4,226.9c2.7,0,3.7-1.5,3.5-5c-0.8,0.5-2.3,0.6-3.6,0.9
			c-1.3,0.3-2.4,0.8-2.4,2.1C199,226.4,200.1,226.9,201.4,226.9z"/>
		<path class="st0" d="M213.7,206.6h5.8v23.2h-5.8V206.6z"/>
		<path class="st0" d="M228.7,210.8h-5.8v-4.2h5.8V210.8z M222.9,212.9h5.8v16.9h-5.8V212.9z"/>
		<path class="st0" d="M242.6,216.5H239v7.7c0,1.3,0.8,1.6,2.1,1.6c0.5,0,1-0.1,1.5-0.1v4.1c-1.1,0-2.1,0.2-3.1,0.2
			c-4.9,0-6.2-1.4-6.2-6v-7.5h-2.9v-3.6h2.9v-5.1h5.8v5.1h3.6V216.5z"/>
		<path class="st0" d="M249.3,222.7c0.1,2.3,1.5,3.8,3.9,3.8c1.4,0,2.7-0.6,3.3-1.9h5.4c-1.1,3.9-4.8,5.6-8.7,5.6
			c-5.7,0-9.6-3.3-9.6-9c0-5.2,4.3-8.9,9.5-8.9c6.3,0,9.4,4.6,9.2,10.3H249.3z M256.4,219.6c-0.1-1.9-1.5-3.5-3.4-3.5
			c-2,0-3.4,1.4-3.7,3.5H256.4z M258.7,206.3l-5.3,4.9h-4.1l3.3-4.9H258.7z"/>
	</g>
</g>
</svg>
